<?xml version="1.0" encoding="utf-8"?>
<!-- Generator: Adobe Illustrator 25.4.1, SVG Export Plug-In . SVG Version: 6.00 Build 0)  -->
<svg version="1.1" id="Layer_1" xmlns="http://www.w3.org/2000/svg" xmlns:xlink="http://www.w3.org/1999/xlink" x="0px" y="0px"
	 viewBox="0 0 2599 1733" style="enable-background:new 0 0 2599 1733;" xml:space="preserve">
<style type="text/css">
	.st0{clip-path:url(#SVGID_00000005953544596295917910000016620335260384914612_);}
	.st1{fill:#FFFFFF;}
	.st2{fill:#FFAA6F;}
	.st3{fill:#D29A87;}
	.st4{fill:#FFA296;}
	.st5{fill:#F5BDAB;}
	.st6{fill:#F6BD8E;}
</style>
<g>
	<g>
		<g>
			<defs>
				<rect id="SVGID_1_" width="2598.08" height="1732.05"/>
			</defs>
			<use xlink:href="#SVGID_1_"  style="overflow:visible;fill:#FFF1E3;"/>
			<clipPath id="SVGID_00000050651966952568306580000011942433447402884273_">
				<use xlink:href="#SVGID_1_"  style="overflow:visible;"/>
			</clipPath>
			<g style="clip-path:url(#SVGID_00000050651966952568306580000011942433447402884273_);">
				<path class="st1" d="M819.68,1498.66l2.19,2.68l-2.56,2.34c-0.89,0.83-1.79,1.69-2.68,2.52c-19.39,18.85-22.64,38.5-29.17,77.62
					c-12.49,75.01-35.39,212.21-199.39,529.55l194.4,79.69c78.08-220.57,170.36-379.18,226.82-476.14
					c32.62-56.04,54.2-93.06,53.95-108.85c-0.04-1.25-0.09-2.46-0.13-3.71l-0.18-3.46l3.44-0.37c16.59-1.66,33.55-7.56,48.95-17.02
					c19.18-11.76,34.5-28.16,43.17-46.19c5.79-12.12,8.56-24.89,7.94-36.99c-0.56-10.79-3.62-20.73-9.09-29.7
					c-7.26-11.85-18.3-20.95-32.05-26.12l-3.4-1.3l1.32-3.44c7.73-19.97,9.72-40,5.76-58c-4.04-18.26-14.31-33.48-28.97-42.79
					c-14.61-9.33-32.7-12.26-50.99-8.24c-4.94,1.13-9.89,2.71-14.75,4.75l-3.42,1.43l-1.39-3.41
					c-4.88-11.97-11.85-21.96-20.69-29.61c-8.34-7.21-17.84-12.02-28.34-14.31c-10.48-2.33-21.13-1.89-31.71,1.18
					c-12.11,3.54-23.31,10.34-33.21,20.22c-9.26,9.19-16.87,20.52-22.65,33.61l-1.47,3.37l-3.33-1.46
					c-13.44-5.92-27.63-7.35-41.12-4.1c-22.23,5.38-34.8,21.31-40.29,30.35c-13.12,21.42-16.6,50.31-9.62,79.24
					C801.26,1469.62,809.09,1485.77,819.68,1498.66z"/>
				<g>
					<g>
						<path class="st2" d="M971.62,1480.39c-31.75-12.14-51.15,14.25-90.56,29.3c-57.82,22.07-63.92,59.38-41.32,76.98
							c22.6,17.59,56.19-2.21,83.66,9.77c0.09,0.04,0.17,0.07,0.26,0.11c0.09,0.03,0.17,0.07,0.26,0.1
							c27.91,10.89,37.74,48.63,66.17,52.11c28.43,3.48,50.44-27.26,25.04-83.7C997.8,1526.58,1002.68,1494.19,971.62,1480.39z"/>
						<path class="st2" d="M905.44,1425.81c7.51,31.06-2.64,60.15-22.66,64.99c-20.02,4.84-42.34-16.41-49.84-47.47
							c-7.51-31.06,2.64-60.15,22.66-64.99C875.62,1373.5,897.93,1394.76,905.44,1425.81z"/>
						
							<ellipse transform="matrix(0.8524 -0.5229 0.5229 0.8524 -636.0316 787.3505)" class="st2" cx="1076.53" cy="1520.2" rx="57.85" ry="37.29"/>
						
							<ellipse transform="matrix(0.2138 -0.9769 0.9769 0.2138 -598.8618 2026.4432)" class="st2" cx="959.49" cy="1385.26" rx="61.01" ry="39.33"/>
						
							<ellipse transform="matrix(0.5379 -0.843 0.843 0.5379 -714.394 1539.8833)" class="st2" cx="1047.34" cy="1421.54" rx="61.01" ry="39.33"/>
					</g>
					<path class="st2" d="M811.93,1500.6c-0.14,0.12-0.29,0.25-0.37,0.35c-21.12,20.52-24.72,42.23-31.32,81.64
						c-12.44,74.67-35.21,211.24-198.98,527.98l6.81,2.79c164.01-317.34,186.9-454.54,199.39-529.55
						c6.53-39.12,9.78-58.78,29.17-77.62c0.89-0.83,1.79-1.69,2.68-2.52l2.56-2.34l-2.19-2.68c-10.58-12.89-18.41-29.04-22.67-46.65
						c-6.98-28.93-3.51-57.82,9.62-79.24c5.49-9.04,18.06-24.97,40.29-30.35c13.5-3.25,27.68-1.82,41.12,4.1l3.33,1.46l1.47-3.37
						c5.78-13.09,13.39-24.42,22.65-33.61c9.91-9.89,21.11-16.68,33.21-20.22c10.59-3.07,21.24-3.5,31.71-1.18
						c10.49,2.29,20,7.1,28.34,14.31c8.84,7.65,15.82,17.64,20.69,29.61l1.39,3.41l3.42-1.43c4.86-2.03,9.8-3.62,14.75-4.75
						c18.3-4.02,36.39-1.09,50.99,8.24c14.66,9.3,24.93,24.53,28.97,42.79c3.96,18,1.97,38.03-5.76,58l-1.32,3.44l3.4,1.3
						c13.75,5.18,24.79,14.28,32.05,26.12c5.47,8.96,8.53,18.91,9.09,29.7c0.62,12.1-2.15,24.87-7.94,36.99
						c-8.67,18.03-23.99,34.43-43.17,46.19c-15.4,9.46-32.36,15.36-48.95,17.02l-3.44,0.37l0.18,3.46c0.04,1.25,0.09,2.46,0.13,3.71
						c0.25,15.79-21.33,52.81-53.95,108.85c-56.46,96.97-148.74,255.57-226.82,476.14l6.77,2.78
						c77.89-220.1,170.02-378.45,226.36-475.23c34.44-59.14,55.24-94.83,54.92-112.66c0.03-0.17,0.01-0.36-0.02-0.51
						c16.59-2.21,33.35-8.28,48.68-17.68c20.34-12.47,36.62-29.99,45.9-49.27c6.34-13.22,9.33-27.22,8.66-40.53
						c-0.61-12-4.05-23.15-10.16-33.11c-7.5-12.27-18.63-21.81-32.28-27.78c7.22-20.18,8.87-40.49,4.82-58.84
						c-4.47-20.22-15.88-37.01-32.16-47.39c-16.26-10.42-36.33-13.66-56.49-9.21c-4.24,0.96-8.5,2.23-12.67,3.81
						c-5.21-11.6-12.37-21.35-21.24-29.06c-9.25-8-19.86-13.35-31.55-15.95c-11.67-2.54-23.55-2.11-35.35,1.33
						c-13.3,3.88-25.49,11.32-36.3,22.07c-9.15,9.05-16.76,20.02-22.7,32.63c-13.88-5.41-28.47-6.51-42.43-3.13
						c-18.38,4.45-34.3,16.4-44.85,33.66c-14.06,23.04-17.9,53.94-10.42,84.76C794.15,1471.23,801.72,1487.36,811.93,1500.6z"/>
				</g>
			</g>
			<g style="clip-path:url(#SVGID_00000050651966952568306580000011942433447402884273_);">
				<path class="st1" d="M2227.88,1447.85l3.28-1.1l1.28,3.22c0.46,1.12,0.95,2.27,1.4,3.4c10.76,24.81,27.98,34.82,62.26,54.78
					c65.72,38.25,185.91,108.27,424.56,374.07l143.39-153.56c-178.6-151.16-294.23-293.65-364.9-380.8
					c-40.85-50.36-67.82-83.66-82.68-89.01c-1.18-0.41-2.33-0.79-3.51-1.2l-3.3-1.06l0.87-3.35c4.33-16.1,4.82-34.05,1.43-51.81
					c-4.2-22.1-14.11-42.24-27.9-56.73c-9.28-9.71-20.24-16.82-31.78-20.53c-10.29-3.3-20.67-3.96-30.99-2.02
					c-13.65,2.59-26.07,9.69-35.78,20.71l-2.42,2.72l-2.75-2.45c-15.94-14.3-33.97-23.27-52.2-25.93
					c-18.5-2.69-36.38,1.51-50.27,11.93c-13.9,10.35-23.05,26.24-25.77,44.77c-0.7,5.02-0.97,10.21-0.79,15.47l0.13,3.71l-3.68,0.1
					c-12.92,0.32-24.73,3.3-35.02,8.86c-9.7,5.24-17.57,12.43-23.42,21.43c-5.89,8.97-9.26,19.09-10.14,30.07
					c-0.98,12.58,1.41,25.46,7.15,38.22c5.32,11.91,13.21,23.05,23.41,33.09l2.63,2.57l-2.55,2.6c-10.3,10.47-16.66,23.23-18.4,37
					c-2.85,22.7,7.6,40.09,14.11,48.43c15.38,19.86,41.17,33.35,70.69,37.07C2194.2,1454.78,2212.07,1453.18,2227.88,1447.85z"/>
				<g>
					<g>
						<path class="st3" d="M2264.63,1299.29c-22.6,25.39-4.79,52.88-4.69,95.07c0.15,61.89,32.88,80.81,57.34,65.91
							c24.46-14.9,17.84-53.33,38.77-74.77c0.06-0.07,0.13-0.13,0.2-0.2c0.06-0.07,0.12-0.14,0.19-0.21
							c20.07-22.24,58.85-18.06,72.17-43.42c13.33-25.35-7.63-56.82-69.4-53.07C2317.1,1291.17,2288.54,1275.13,2264.63,1299.29z"/>
						<path class="st3" d="M2190.14,1341.84c31.7,3.98,55.32,23.78,52.75,44.21s-30.35,33.78-62.05,29.79s-55.32-23.78-52.75-44.21
							C2130.66,1351.2,2158.44,1337.86,2190.14,1341.84z"/>
						<path class="st3" d="M2302.39,1222.27c5.98,31.39,27.22,53.71,47.46,49.85c20.23-3.85,31.79-32.42,25.82-63.81
							s-27.22-53.71-47.46-49.85C2307.97,1162.31,2296.41,1190.88,2302.39,1222.27z"/>
						
							<ellipse transform="matrix(0.546 -0.8378 0.8378 0.546 -83.9959 2398.8564)" class="st3" cx="2171.37" cy="1276.93" rx="39.33" ry="61.01"/>
						<path class="st3" d="M2204.9,1231.14c20.14,27.01,50.59,38.38,68,25.4c17.41-12.98,15.2-45.41-4.94-72.42
							c-20.14-27.01-50.59-38.38-68-25.4C2182.54,1171.71,2184.75,1204.13,2204.9,1231.14z"/>
					</g>
					<path class="st3" d="M2226.95,1455.78c0.07,0.18,0.13,0.35,0.2,0.47c11.7,27.02,30.73,38.07,65.25,58.21
						c65.42,38.09,185.06,107.77,423.24,373.13l5.02-5.38c-238.65-265.8-358.84-335.82-424.56-374.07
						c-34.27-19.96-51.5-29.97-62.26-54.78c-0.46-1.12-0.95-2.27-1.4-3.4l-1.28-3.22l-3.28,1.1c-15.8,5.33-33.68,6.93-51.66,4.67
						c-29.52-3.72-55.31-17.21-70.69-37.07c-6.51-8.34-16.96-25.73-14.11-48.43c1.74-13.77,8.1-26.53,18.4-37l2.55-2.6l-2.63-2.57
						c-10.19-10.04-18.09-21.17-23.41-33.09c-5.74-12.77-8.12-25.65-7.15-38.22c0.88-10.99,4.25-21.1,10.14-30.07
						c5.86-9,13.73-16.19,23.42-21.43c10.29-5.56,22.1-8.54,35.02-8.86l3.68-0.1l-0.13-3.71c-0.18-5.26,0.09-10.45,0.79-15.47
						c2.72-18.53,11.88-34.41,25.77-44.77c13.89-10.41,31.77-14.62,50.27-11.93c18.23,2.67,36.26,11.63,52.2,25.93l2.75,2.45
						l2.42-2.72c9.71-11.02,22.13-18.12,35.78-20.71c10.32-1.94,20.7-1.28,30.99,2.02c11.53,3.71,22.49,10.82,31.78,20.53
						c13.79,14.5,23.7,34.63,27.9,56.73c3.39,17.76,2.9,35.7-1.43,51.81l-0.87,3.35l3.3,1.06c1.18,0.41,2.33,0.79,3.51,1.2
						c14.85,5.36,41.83,38.65,82.68,89.01c70.68,87.15,186.3,229.64,364.9,380.8l4.99-5.35
						c-178.23-150.81-293.67-293.07-364.21-380.04c-43.1-53.16-69.11-85.26-85.9-91.27c-0.15-0.08-0.33-0.14-0.48-0.16
						c3.81-16.3,4.07-34.12,0.71-51.78c-4.45-23.44-15.07-44.87-29.82-60.38c-10.12-10.61-22.15-18.37-34.84-22.46
						c-11.44-3.68-23.08-4.42-34.56-2.23c-14.13,2.67-27,9.7-37.41,20.35c-16.31-13.9-34.72-22.64-53.32-25.36
						c-20.49-2.98-40.23,1.74-55.71,13.28c-15.5,11.52-25.65,29.14-28.63,49.57c-0.6,4.3-0.93,8.74-0.93,13.2
						c-12.7,0.76-24.35,4.01-34.7,9.57c-10.76,5.82-19.52,13.84-26.1,23.85c-6.51,10.01-10.32,21.28-11.28,33.52
						c-1.08,13.81,1.55,27.85,7.78,41.76c5.22,11.77,12.78,22.76,22.47,32.79c-9.98,11.06-16.17,24.32-17.96,38.57
						c-2.35,18.76,3.18,37.88,15.58,53.86c16.57,21.32,44.1,35.85,75.57,39.77C2193.19,1462,2210.95,1460.64,2226.95,1455.78z"/>
				</g>
			</g>
			<g style="clip-path:url(#SVGID_00000050651966952568306580000011942433447402884273_);">
				<path class="st1" d="M2133.16,555.15l0.5-3.43l3.45,0.31c1.21,0.1,2.46,0.18,3.66,0.28c26.99,1.59,43.7-9.27,76.97-30.86
					c63.79-41.4,180.49-117.09,525.36-210.19l-72.37-197.24c-215.46,91.22-394.79,130.14-504.45,153.91
					c-63.37,13.74-105.25,22.8-116.74,33.64c-0.9,0.87-1.76,1.73-2.65,2.6l-2.43,2.47l-2.6-2.29
					c-12.42-11.13-28.22-19.66-45.59-24.64c-21.62-6.22-44.06-6.46-63.22-0.69c-12.85,3.91-24.14,10.48-32.65,19.1
					c-7.59,7.7-12.86,16.66-15.79,26.75c-3.84,13.35-3.11,27.64,2.35,41.28l1.33,3.39l-3.43,1.35
					c-19.95,7.77-36.08,19.82-46.69,34.89c-10.75,15.3-15.06,33.15-12.03,50.25c2.97,17.07,13.02,32.41,28.33,43.19
					c4.17,2.89,8.68,5.47,13.46,7.68l3.37,1.56l-1.57,3.33c-5.54,11.68-8.21,23.56-7.89,35.25c0.3,11.02,3.17,21.28,8.56,30.57
					c5.35,9.3,12.86,16.87,22.27,22.61c10.78,6.54,23.36,10.22,37.34,10.86c13.03,0.63,26.53-1.4,40.09-5.96l3.49-1.19l1.17,3.44
					c4.7,13.91,13.22,25.35,24.72,33.11c18.98,12.78,39.21,11.3,49.59,9.25c24.66-4.77,48.33-21.7,64.97-46.37
					C2124.15,588.34,2130.79,571.66,2133.16,555.15z"/>
				<g>
					<g>
						<path class="st4" d="M2017.15,455.35c12.46,31.62,45.03,28.13,82.73,47.06c55.31,27.78,86.96,7.1,84.69-21.45
							c-2.27-28.55-39.55-39.98-49.24-68.33c-0.03-0.09-0.06-0.18-0.09-0.26c-0.03-0.09-0.07-0.17-0.1-0.26
							c-10.8-27.95,10.42-60.67-6.19-84c-16.61-23.33-54.15-18.82-78.67,38C2033.57,404.85,2006.37,423.11,2017.15,455.35z"/>
						<path class="st4" d="M2021.52,541.02c17.85-26.5,46.17-38.65,63.25-27.14c17.08,11.51,16.46,42.32-1.4,68.82
							c-17.85,26.5-46.17,38.65-63.25,27.14C2003.04,598.32,2003.67,567.51,2021.52,541.02z"/>
						
							<ellipse transform="matrix(0.2762 -0.9611 0.9611 0.2762 1092.6801 2152.9976)" class="st4" cx="1975.73" cy="351.06" rx="37.29" ry="57.85"/>
						<path class="st4" d="M1935.4,494.46c29.15-16.9,61.61-15.36,72.51,3.44c10.89,18.79-3.91,47.73-33.06,64.62
							c-29.15,16.9-61.61,15.36-72.51-3.44C1891.45,540.29,1906.25,511.36,1935.4,494.46z"/>
						<path class="st4" d="M1929.38,477.92c33.19-5.79,57.07-27.84,53.34-49.23c-3.74-21.4-33.67-34.05-66.86-28.25
							c-33.19,5.79-57.07,27.84-53.34,49.23C1866.26,471.06,1896.19,483.71,1929.38,477.92z"/>
					</g>
					<path class="st4" d="M2139.82,559.56c0.19,0.02,0.38,0.04,0.51,0.04c29.39,1.74,47.84-10.25,81.38-31.98
						c63.5-41.21,179.65-116.56,523.92-209.44l-2.54-6.91c-344.87,93.1-461.57,168.79-525.36,210.19
						c-33.27,21.58-49.98,32.44-76.97,30.86c-1.21-0.1-2.46-0.18-3.66-0.28l-3.45-0.31l-0.5,3.43
						c-2.37,16.51-9.01,33.19-19.13,48.21c-16.64,24.67-40.3,41.6-64.97,46.37c-10.38,2.05-30.62,3.53-49.59-9.25
						c-11.5-7.77-20.02-19.2-24.72-33.11l-1.17-3.44l-3.49,1.19c-13.56,4.57-27.06,6.59-40.09,5.96
						c-13.98-0.64-26.55-4.32-37.34-10.86c-9.41-5.74-16.92-13.31-22.27-22.61c-5.39-9.29-8.26-19.55-8.56-30.57
						c-0.32-11.69,2.35-23.58,7.89-35.25l1.57-3.33l-3.37-1.56c-4.78-2.21-9.29-4.8-13.46-7.68
						c-15.32-10.79-25.36-26.12-28.33-43.19c-3.03-17.1,1.28-34.95,12.03-50.25c10.61-15.07,26.74-27.12,46.69-34.89l3.43-1.35
						l-1.33-3.39c-5.45-13.64-6.19-27.93-2.35-41.28c2.92-10.09,8.2-19.05,15.79-26.75c8.51-8.62,19.8-15.2,32.65-19.1
						c19.16-5.77,41.6-5.53,63.22,0.69c17.38,4.98,33.17,13.52,45.59,24.64l2.6,2.29l2.43-2.47c0.9-0.87,1.76-1.73,2.65-2.6
						c11.48-10.84,53.36-19.9,116.74-33.64c109.66-23.77,288.99-62.69,504.45-153.91l-2.52-6.87
						c-214.99,91.05-394.02,129.91-503.47,153.64c-66.88,14.49-107.26,23.22-120.2,35.5c-0.14,0.1-0.27,0.24-0.36,0.36
						c-12.82-10.75-28.61-19.02-45.9-23.99c-22.93-6.6-46.84-6.79-67.34-0.62c-14.04,4.25-26.39,11.48-35.76,20.96
						c-8.44,8.55-14.36,18.61-17.58,29.84c-3.99,13.81-3.53,28.47,1.29,42.57c-19.76,8.29-35.87,20.78-46.68,36.15
						c-11.9,16.94-16.6,36.69-13.27,55.71c3.29,19.03,14.44,36.03,31.32,47.91c3.57,2.48,7.38,4.77,11.37,6.78
						c-5.05,11.68-7.41,23.54-7.11,35.28c0.34,12.22,3.55,23.67,9.52,34.05c6,10.33,14.34,18.81,24.84,25.19
						c11.83,7.2,25.55,11.18,40.78,11.9c12.86,0.65,26.08-1.14,39.4-5.26c5.37,13.89,14.41,25.4,26.33,33.43
						c15.68,10.56,35.24,14.25,55.1,10.39c26.5-5.17,51.89-23.19,69.58-49.51C2130.14,592.5,2136.94,576.03,2139.82,559.56z"/>
				</g>
			</g>
			<g style="clip-path:url(#SVGID_00000050651966952568306580000011942433447402884273_);">
				<path class="st1" d="M952.33,168l-3.46,0.09l-0.28-3.45c-0.11-1.21-0.24-2.45-0.35-3.66c-3.06-26.87-16.61-41.46-43.57-70.55
					c-51.71-55.76-146.25-157.79-297-481.63L425.72-286.14C552.47-89.47,621.51,80.55,663.69,184.52
					c24.39,60.09,40.48,99.8,53.12,109.26c1.01,0.74,2,1.43,3.01,2.17l2.85,1.97l-1.81,2.95c-8.84,14.14-14.54,31.17-16.48,49.14
					c-2.43,22.36,1.18,44.51,10.14,62.4c6.05,12,14.46,21.99,24.41,28.9c8.88,6.16,18.62,9.82,29.06,10.97
					c13.81,1.5,27.77-1.67,40.27-9.38l3.11-1.89l1.91,3.15c11.07,18.33,25.7,32.16,42.36,40.03c16.91,7.97,35.24,9.16,51.57,3.25
					c16.31-5.85,29.7-18.37,37.71-35.31c2.13-4.6,3.9-9.48,5.27-14.57l0.96-3.58l3.55,0.98c12.45,3.46,24.62,4.06,36.08,1.74
					c10.81-2.18,20.43-6.76,28.66-13.66c8.25-6.87,14.42-15.56,18.47-25.81c4.6-11.74,6.08-24.76,4.31-38.65
					c-1.61-12.95-5.92-25.9-12.74-38.47l-1.77-3.23l3.19-1.75c12.91-7.01,22.71-17.36,28.39-30.03c9.34-20.88,4.42-40.57,0.63-50.44
					c-8.92-23.48-29.65-43.9-56.81-56.07C986.57,171.19,969,167.51,952.33,168z"/>
				<g>
					<g>
						<path class="st5" d="M873.85,299.38c29.02-17.69,20.01-49.18,32.21-89.57c17.91-59.25-7.89-86.89-35.63-79.77
							c-27.74,7.12-32.62,45.81-58.89,60.21c-0.08,0.04-0.16,0.09-0.24,0.13c-0.08,0.05-0.16,0.1-0.24,0.14
							c-25.69,15.42-61.56,0.12-81.7,20.48s-9.28,56.58,50.91,71C821.29,291.84,843.94,315.51,873.85,299.38z"/>
						<path class="st5" d="M957.51,280.4c-29.16-13.06-45.98-38.88-37.56-57.68c8.42-18.8,38.88-23.46,68.04-10.4
							c29.16,13.05,45.98,38.88,37.56,57.68C1017.13,288.8,986.67,293.46,957.51,280.4z"/>
						<path class="st5" d="M815.27,362.04c3.44-31.76-10.37-59.31-30.85-61.53c-20.48-2.22-39.86,21.74-43.3,53.5
							c-3.44,31.76,10.37,59.31,30.85,61.53C792.44,417.76,811.83,393.8,815.27,362.04z"/>
						<path class="st5" d="M926.38,373.22c-21.64-25.83-25.68-58.08-9.02-72.02c16.65-13.95,47.69-4.32,69.33,21.51
							c21.64,25.83,25.68,58.08,9.02,72.02C979.06,408.68,948.02,399.05,926.38,373.22z"/>
						<path class="st5" d="M911.11,381.98c-11.39-31.71-37.19-51.47-57.64-44.12c-20.44,7.34-27.78,39-16.4,70.71
							c11.39,31.71,37.19,51.47,57.64,44.12C915.16,445.35,922.5,413.69,911.11,381.98z"/>
					</g>
					<path class="st5" d="M955.53,160.68c-0.01-0.19-0.02-0.38-0.05-0.51c-3.31-29.26-18.29-45.38-45.43-74.71
						C858.58,29.95,764.47-71.6,614.04-394.88l-6.37,3.68c150.75,323.85,245.29,425.87,297,481.63
						c26.96,29.09,40.52,43.69,43.57,70.55c0.11,1.21,0.24,2.45,0.35,3.66l0.28,3.45l3.46-0.09c16.67-0.49,34.24,3.19,50.78,10.6
						c27.16,12.17,47.89,32.59,56.81,56.07c3.8,9.88,8.71,29.56-0.63,50.44c-5.68,12.66-15.49,23.01-28.39,30.03l-3.19,1.75
						l1.77,3.23c6.82,12.58,11.13,25.53,12.74,38.47c1.76,13.88,0.29,26.9-4.31,38.65c-4.05,10.25-10.22,18.94-18.47,25.81
						c-8.23,6.9-17.85,11.48-28.66,13.66c-11.46,2.32-23.63,1.72-36.08-1.74l-3.55-0.98l-0.96,3.58c-1.36,5.09-3.14,9.97-5.27,14.57
						c-8.01,16.94-21.4,29.45-37.71,35.31c-16.33,5.91-34.65,4.72-51.57-3.25c-16.66-7.87-31.29-21.7-42.36-40.03l-1.91-3.15
						l-3.11,1.89c-12.5,7.71-26.45,10.88-40.27,9.38c-10.44-1.15-20.17-4.82-29.06-10.97c-9.95-6.91-18.36-16.91-24.41-28.9
						c-8.96-17.89-12.57-40.04-10.14-62.4c1.93-17.97,7.64-35,16.48-49.14l1.81-2.95l-2.85-1.97c-1.01-0.73-2-1.43-3.01-2.17
						c-12.64-9.46-28.73-49.17-53.12-109.26C621.51,80.55,552.47-89.47,425.72-286.14l-6.34,3.66
						C545.88-86.25,614.81,83.49,656.92,187.26c25.72,63.42,41.24,101.71,55.54,112.35c0.12,0.13,0.28,0.23,0.42,0.3
						c-8.4,14.48-13.84,31.45-15.78,49.32c-2.57,23.72,1.33,47.31,10.91,66.45c6.59,13.1,15.83,24.03,26.77,31.64
						c9.87,6.86,20.79,10.96,32.41,12.21c14.29,1.57,28.65-1.4,41.72-8.55c11.55,18.05,26.61,31.78,43.6,39.8
						c18.73,8.83,38.99,10.07,57.16,3.54c18.19-6.5,33.03-20.39,41.84-39.06c1.83-3.94,3.44-8.09,4.74-12.36
						c12.37,2.97,24.46,3.27,35.98,0.97c11.99-2.43,22.71-7.54,31.92-15.21c9.15-7.68,16.08-17.34,20.56-28.78
						c5.06-12.89,6.64-27.09,4.74-42.22c-1.56-12.78-5.59-25.5-11.93-37.92c12.77-7.67,22.56-18.55,28.43-31.66
						c7.72-17.26,8-37.16,0.8-56.06c-9.63-25.22-31.72-47.15-60.69-60.08C989.64,164.58,972.25,160.7,955.53,160.68z"/>
				</g>
			</g>
			<g style="clip-path:url(#SVGID_00000050651966952568306580000011942433447402884273_);">
				<path class="st1" d="M196.02,726.03l-2.06,2.78l-2.89-1.91c-1.02-0.66-2.08-1.32-3.09-1.98c-23.03-14.17-42.88-12.51-82.41-9.24
					c-75.78,6.28-214.41,17.73-562.27-63.45l-29.59,208c232.98,21.6,409.38,72.18,517.23,103.14
					c62.33,17.88,103.51,29.72,118.76,25.61c1.2-0.34,2.36-0.69,3.57-1.03l3.31-1.02l1.2,3.25c5.68,15.68,15.55,30.67,28.5,43.29
					c16.1,15.71,35.76,26.54,55.36,30.53c13.17,2.64,26.23,2.19,37.8-1.37c10.33-3.19,19.21-8.59,26.56-16.09
					c9.71-9.94,15.82-22.88,17.47-37.47l0.43-3.61l3.66,0.43c21.26,2.6,41.17-0.38,57.64-8.64c16.71-8.39,28.95-22.08,34.38-38.57
					c5.46-16.45,3.87-34.71-4.52-51.46c-2.31-4.52-5.06-8.92-8.22-13.13l-2.23-2.97l2.96-2.19c10.41-7.67,18.38-16.87,23.63-27.32
					c4.95-9.85,7.28-20.25,6.93-30.98c-0.31-10.73-3.35-20.95-8.92-30.46c-6.4-10.87-15.74-20.06-27.75-27.24
					c-11.18-6.72-24.03-11.32-38.14-13.72l-3.63-0.6l0.6-3.59c2.44-14.48,0.35-28.58-6.11-40.87
					c-10.67-20.24-29.19-28.51-39.31-31.62c-23.98-7.47-52.84-3.76-79.18,10.11C219.66,701.06,205.92,712.61,196.02,726.03z"/>
				<g>
					<g>
						<path class="st6" d="M250.98,868.85c3.99-33.75-26.36-46.09-50.61-80.61c-35.57-50.65-73.24-47.41-84.76-21.19
							c-11.52,26.22,15.92,53.94,11.04,83.5c-0.01,0.09-0.03,0.18-0.05,0.28c-0.01,0.09-0.02,0.18-0.03,0.28
							c-3.71,29.73-37.89,48.51-34.29,76.93c3.6,28.41,38.8,42.21,87.29,3.75C212.62,905.56,245.22,902.35,250.98,868.85z"/>
						
							<ellipse transform="matrix(0.8847 -0.4661 0.4661 0.8847 -322.323 213.4204)" class="st6" cx="270.29" cy="758.31" rx="57.85" ry="37.29"/>
						<path class="st6" d="M264.15,953.62c-22.88-22.31-53.08-28.43-67.46-13.68c-14.38,14.75-7.49,44.78,15.38,67.09
							c22.88,22.31,53.08,28.43,67.46,13.68C293.91,1005.96,287.02,975.92,264.15,953.62z"/>
						
							<ellipse transform="matrix(0.9995 -0.0323 0.0323 0.9995 -26.7632 11.4291)" class="st6" cx="340.24" cy="833.77" rx="61.01" ry="39.33"/>
						
							<ellipse transform="matrix(0.3147 -0.9492 0.9492 0.3147 -656.8688 945.8234)" class="st6" cx="326.6" cy="927.83" rx="39.33" ry="61.01"/>
					</g>
					<path class="st6" d="M192.23,718.99c-0.16-0.11-0.31-0.22-0.43-0.28c-25.07-15.45-47-13.61-86.82-10.34
						c-75.44,6.25-213.42,17.66-560.65-63.43l-1.04,7.29c347.87,81.19,486.49,69.74,562.27,63.45c39.53-3.27,59.38-4.93,82.41,9.24
						c1.02,0.66,2.08,1.32,3.09,1.98l2.89,1.91l2.06-2.78c9.9-13.42,23.64-24.97,39.67-33.42c26.33-13.86,55.19-17.58,79.18-10.11
						c10.11,3.11,28.64,11.38,39.31,31.62c6.46,12.29,8.55,26.39,6.11,40.87l-0.6,3.59l3.63,0.6c14.11,2.39,26.95,7,38.14,13.72
						c12.01,7.18,21.35,16.37,27.75,27.24c5.57,9.51,8.6,19.73,8.92,30.46c0.35,10.74-1.98,21.13-6.93,30.98
						c-5.25,10.45-13.22,19.66-23.63,27.32l-2.96,2.19l2.23,2.97c3.16,4.21,5.91,8.62,8.22,13.13c8.39,16.75,9.98,35.01,4.52,51.46
						c-5.42,16.49-17.67,30.18-34.38,38.57c-16.47,8.26-36.39,11.24-57.64,8.64l-3.66-0.43l-0.43,3.61
						c-1.65,14.59-7.76,27.53-17.47,37.47c-7.35,7.5-16.24,12.9-26.56,16.09c-11.58,3.57-24.63,4.02-37.8,1.37
						c-19.61-3.99-39.26-14.82-55.36-30.53c-12.95-12.61-22.83-27.61-28.5-43.29l-1.2-3.25l-3.31,1.02
						c-1.2,0.34-2.36,0.69-3.57,1.03c-15.24,4.11-56.43-7.73-118.76-25.61c-107.85-30.96-284.25-81.53-517.23-103.14l-1.03,7.25
						C-254.85,889.01-78.74,939.5,28.9,970.39c65.78,18.89,105.48,30.3,122.69,25.61c0.17-0.02,0.35-0.08,0.49-0.14
						c6.21,15.54,16.2,30.3,29.08,42.86c17.08,16.66,38.05,28.15,59.02,32.41c14.37,2.9,28.68,2.37,41.42-1.55
						c11.49-3.54,21.45-9.6,29.61-17.97c10.05-10.28,16.58-23.41,19.01-38.11c21.33,2.05,41.43-1.33,58.23-9.75
						c18.5-9.29,31.99-24.47,38.05-42.79c6.11-18.32,4.33-38.57-4.92-57.03c-1.97-3.87-4.25-7.7-6.8-11.35
						c9.97-7.9,17.67-17.23,22.96-27.72c5.49-10.93,8.08-22.53,7.73-34.5c-0.4-11.94-3.73-23.35-9.96-33.94
						c-7.02-11.94-17.22-21.94-30.3-29.78c-11.02-6.65-23.52-11.34-37.2-14.01c1.85-14.78-0.68-29.2-7.37-41.9
						c-8.82-16.73-24.31-29.23-43.62-35.22c-25.79-7.98-56.68-4.13-84.73,10.68C216.35,694.56,202.56,705.85,192.23,718.99z"/>
				</g>
			</g>
		</g>
		<g>
			<path class="st5" d="M515.87,605.82c-41.6,0-83.46-17.99-108.98-51.46c-15.97-20.96-25.43-46.15-34.57-70.51l-1.23-3.28
				c-5.13-13.63-10.36-26.97-16.61-39.43c-14.15,12.84-30.52,22.51-48.05,28.07c-22.59,7.16-48.92,5.08-67.12-5.3
				c-11.95-6.82-19.75-16.88-22.55-29.08c-2.68-11.66,0-24.18,7.56-35.25c8.91-13.06,23.17-22.18,38.13-24.39
				c25.01-3.7,53.15,8.46,73.38,31.74c7.69,8.85,14.01,18.71,19.53,29.23c11.63-11.17,21.61-24.58,29.28-39.68
				c17.24-33.89,20.82-72.19,9.83-105.08c-10.99-32.89-36.88-61.34-71.02-78.06c-34.15-16.71-72.49-19.72-105.23-8.22
				c-44.16,15.51-77.34,52.1-106.61,84.38l-2.27-2.05c29.52-32.55,62.98-69.45,107.87-85.22c33.48-11.76,72.7-8.72,107.58,8.36
				c34.88,17.08,61.33,46.17,72.58,79.84c11.25,33.66,7.6,72.82-10.01,107.43c-7.98,15.68-18.39,29.59-30.55,41.12
				c6.48,12.81,11.87,26.52,17.13,40.52l1.23,3.29c9.06,24.16,18.44,49.13,34.14,69.73c41.1,53.92,125.63,66.74,180.87,27.43
				l1.77,2.49C569.74,598.25,542.85,605.82,515.87,605.82z M271.52,377.57c-2.9,0-5.78,0.21-8.62,0.63
				c-14.14,2.09-27.62,10.72-36.05,23.09c-7.08,10.36-9.6,22.02-7.11,32.84c2.61,11.36,9.91,20.73,21.1,27.12
				c17.48,9.98,42.89,11.96,64.67,5.04c17.37-5.51,33.58-15.15,47.54-27.98c-5.51-10.61-11.83-20.54-19.52-29.4
				C316.3,389.07,293.21,377.57,271.52,377.57z"/>
		</g>
		<g>
			<path class="st6" d="M503.41,1579.58c-11.97,0-23.51-3.2-32.82-10.93c-27.16-22.56-18.35-66.64-2.56-97.52
				c1.94-3.79,3.96-7.62,6.01-11.48c14.51-27.46,29.52-55.86,21.73-84.51c-8.76-32.21-44-49.39-74.29-49.71
				c-32.81-0.29-63.23,14-91.4,29.56c-4.52,2.5-9.03,5.04-13.54,7.59c-23.79,13.43-48.39,27.32-75.29,33.9
				c-28.6,7.01-68.01,5.29-92.81-20.49c-12.52-13-18.55-32.85-15.77-51.82c2.32-15.8,10.36-28.31,22.64-35.22l1.5,2.66
				c-11.44,6.44-18.94,18.16-21.13,33.01c-2.65,18.05,3.08,36.92,14.95,49.25c23.9,24.85,62.11,26.43,89.89,19.64
				c26.5-6.48,50.91-20.26,74.52-33.59c4.52-2.55,9.04-5.1,13.56-7.6c28.2-15.57,58.81-29.94,91.72-29.94c0.4,0,0.8,0,1.2,0.01
				c31.43,0.33,68.05,18.29,77.2,51.97c8.11,29.81-7.19,58.75-21.98,86.74c-2.04,3.85-4.05,7.66-5.98,11.45
				c-15.28,29.88-23.98,72.37,1.79,93.78c19.88,16.52,50.88,10.96,72.8-1.86c11.25-6.59,21.62-14.99,31.66-23.11
				c10.27-8.31,20.89-16.91,32.54-23.66c22.92-13.28,55.37-18.71,76.24-0.91l-1.98,2.33c-19.72-16.84-50.73-11.51-72.73,1.22
				c-11.44,6.63-21.97,15.15-32.14,23.39c-10.12,8.2-20.59,16.67-32.04,23.37C534.16,1574.53,518.45,1579.58,503.41,1579.58z"/>
		</g>
		<g>
			<path class="st2" d="M1429.91,1604.43c-45.31-34.01-65.63-97.85-48.32-151.78c17.31-53.94,70.97-94.04,127.6-95.34
				c30.02-0.71,59.72,9.55,83.93,27.23c30.59-31.14,75.5-51.33,123.64-53.95c54.5-2.98,113.45,14.59,170.85,50.78
				c5.3,3.34,10.53,6.8,15.77,10.26c14.85,9.8,30.2,19.94,46.72,27.04c14.71,6.33,43.34,15.28,69.83,4.26l1.18,2.82
				c-20.4,8.5-46.05,6.97-72.22-4.27c-16.77-7.21-32.24-17.42-47.19-27.3c-5.22-3.45-10.44-6.89-15.72-10.22
				c-56.86-35.85-115.38-53.24-169.05-50.32c-47.23,2.58-91.29,22.31-121.34,52.75c20.32,15.5,36.53,36.32,45.46,60.3
				c9.14,24.55,8.82,56.02-12.49,71.01c-9.12,6.4-20.84,8.21-32.98,5.08c-14.67-3.78-27.74-14.23-34.11-27.29
				c-10.32-21.14-8.12-48.85,6.04-76c6.17-11.83,14.11-22.81,23.49-32.73c-23.62-17.14-52.42-27.01-81.74-26.38
				c-55.38,1.27-107.85,40.47-124.76,93.22c-16.93,52.73,2.94,115.15,47.24,148.4L1429.91,1604.43z M1593.47,1388.58
				c-9.29,9.78-17.15,20.62-23.24,32.31c-13.71,26.29-15.9,52.99-6.01,73.25c5.99,12.27,18.29,22.11,32.13,25.67
				c11.26,2.9,22.08,1.26,30.45-4.62c19.99-14.05,20.12-43.99,11.39-67.44C1629.42,1424.19,1613.45,1403.76,1593.47,1388.58z"/>
		</g>
		<g>
			<path class="st3" d="M2247.1,1004.98c-55.89,0-118.44-33.93-127.53-91.52c-7.45-47.23,24.67-91.76,59.81-114.94
				c38.4-25.33,85.84-35.03,127.69-43.59c41.59-8.5,88.72-18.14,126.62-43.14c29.03-19.15,54.56-54.97,41.99-88.37
				c-10.43-27.72-43.74-40.23-70.93-38.26c-29.58,2.12-57.17,17.17-81.52,30.45l-1.47-2.68c24.62-13.43,52.52-28.65,82.76-30.82
				c28.56-2.08,63.06,11.12,74.01,40.23c13.16,34.97-13.16,72.2-43.17,91.99c-38.39,25.32-85.84,35.02-127.69,43.58
				c-41.58,8.5-88.71,18.13-126.62,43.14c-34.32,22.64-65.71,66.02-58.47,111.91c8.83,55.96,69.9,88.94,124.5,88.94
				c0.56,0,1.12,0,1.69-0.01c19.27-0.24,35.9-3.7,49.64-10.31c-14.72-6.95-26.16-16.78-33.15-28.88
				c-8.03-13.9-8.57-32.85-1.37-48.28c5.8-12.42,15.53-20.41,27.42-22.5c9.77-1.72,20.06,0.9,29.01,7.35
				c10.1,7.28,17.16,18.62,18.9,30.33c3.07,20.66-7.95,43.83-27.42,57.65c-2.03,1.44-4.15,2.8-6.34,4.06
				c10.04,3.99,21.45,6.7,33.86,7.96c46.12,4.69,93.66-8.66,130.58-36.62l1.84,2.44c-37.53,28.41-85.93,41.98-132.73,37.22
				c-13.66-1.39-26.14-4.51-37-9.12c-14.57,7.54-32.41,11.49-53.2,11.75C2248.25,1004.98,2247.67,1004.98,2247.1,1004.98z
				 M2297.22,894.49c-1.8,0-3.6,0.15-5.38,0.46c-10.87,1.91-19.81,9.29-25.17,20.78c-6.8,14.56-6.31,32.41,1.24,45.46
				c7.01,12.13,18.78,21.92,33.98,28.63c2.85-1.54,5.57-3.22,8.14-5.05c18.56-13.18,29.08-35.17,26.18-54.71
				c-1.62-10.91-8.22-21.49-17.67-28.3C2311.91,897,2304.51,894.49,2297.22,894.49z"/>
		</g>
		<g>
			<path class="st4" d="M1243.91,301.38c-37.91-28.91-48.69-89.76-24.04-135.64c21.98-40.91,68.68-69.91,121.87-75.69
				c43.3-4.69,91.78,4.74,144.14,28.05c18.37,8.17,38.77,18.57,54.93,34.51c50.94-14.45,108.25,5.89,163.26,30.88
				c63.89,29.03,125.91,53.15,182.13,29.9c24.32-10.06,44.37-28.37,63.75-46.07c6.81-6.22,13.86-12.66,21-18.65
				c24.74-20.78,62.08-43.39,99.44-33.04l-0.81,2.94c-36.1-9.99-72.49,12.13-96.67,32.43c-7.09,5.96-14.11,12.37-20.9,18.57
				c-19.58,17.88-39.83,36.37-64.65,46.64c-57.32,23.73-120.01-0.62-184.56-29.94c-53.86-24.47-109.89-44.45-159.54-31.17
				c1.86,1.95,3.65,3.98,5.36,6.09c17.98,22.14,23.35,50.67,13.68,72.67c-5.54,12.61-17.65,23.09-31.61,27.35
				c-12.14,3.7-24.06,2.42-33.58-3.62c-16.15-10.23-23.51-33.32-17.13-53.71c5.47-17.46,19.47-32.7,39.43-42.89
				c5.9-3.02,11.92-5.46,18.03-7.39c-15.63-14.95-35.17-24.87-52.82-32.73c-51.85-23.08-99.79-32.45-142.57-27.8
				c-52.19,5.66-97.99,34.06-119.51,74.1c-23.97,44.62-13.57,103.73,23.2,131.77L1243.91,301.38z M1539.93,156.05
				c-6.5,1.95-12.87,4.48-19.12,7.67c-18.94,9.68-32.76,24.65-37.91,41.08c-5.98,19.12,0.83,40.71,15.85,50.22
				c8.76,5.55,19.79,6.71,31.05,3.27c13.13-4.01,24.51-13.84,29.71-25.66c9.21-20.97,4-48.26-13.26-69.52
				C1544.24,160.65,1542.14,158.29,1539.93,156.05z"/>
		</g>
	</g>
</g>
</svg>
