<?xml version="1.0" standalone="no"?>
<!DOCTYPE svg PUBLIC "-//W3C//DTD SVG 20010904//EN"
 "http://www.w3.org/TR/2001/REC-SVG-20010904/DTD/svg10.dtd">
<svg version="1.0" xmlns="http://www.w3.org/2000/svg"
 width="126.000000pt" height="126.000000pt" viewBox="0 0 126.000000 126.000000"
 preserveAspectRatio="xMidYMid meet">
<metadata>
Created by potrace 1.10, written by Peter Selinger 2001-2011
</metadata>
<g transform="translate(0.000000,126.000000) scale(0.100000,-0.100000)"
fill="#000000" stroke="none">
<path d="M550 1191 c0 -4 -11 -6 -25 -3 -14 2 -25 0 -25 -6 0 -6 -8 -8 -19 -5
-10 2 -24 -2 -32 -10 -8 -7 -20 -12 -27 -9 -6 2 -12 -1 -12 -8 0 -6 -5 -8 -10
-5 -12 7 -80 -32 -80 -46 0 -6 -4 -8 -9 -5 -5 4 -19 -6 -31 -21 -12 -16 -18
-21 -14 -13 4 8 -12 -3 -35 -25 -42 -40 -50 -51 -28 -39 6 3 -1 -5 -18 -20
-16 -14 -27 -25 -23 -26 5 0 -1 -9 -12 -20 -12 -12 -18 -25 -15 -29 2 -5 -2
-12 -11 -15 -9 -4 -14 -13 -10 -21 3 -8 1 -15 -5 -15 -6 0 -9 -7 -5 -15 3 -8
1 -15 -5 -15 -6 0 -9 -7 -5 -15 3 -8 1 -15 -5 -15 -6 0 -9 -7 -5 -15 3 -8 0
-15 -5 -15 -7 0 -9 -11 -7 -25 3 -14 1 -25 -3 -25 -5 0 -9 -36 -9 -80 0 -44 4
-80 9 -80 4 0 6 -11 3 -25 -2 -14 0 -25 7 -25 5 0 8 -7 5 -15 -4 -8 -1 -15 5
-15 6 0 8 -7 5 -15 -4 -8 -1 -15 5 -15 6 0 8 -7 5 -15 -4 -8 -1 -15 6 -15 6 0
8 -4 5 -10 -3 -5 -1 -10 5 -10 6 0 8 -4 5 -10 -3 -5 -1 -10 5 -10 6 0 9 -4 5
-10 -3 -5 3 -18 15 -30 11 -11 17 -20 13 -20 -5 0 8 -14 27 -31 19 -17 28 -27
20 -23 -8 4 1 -9 19 -29 37 -39 54 -50 30 -19 -8 10 -1 4 14 -12 16 -17 32
-30 38 -29 5 2 9 -1 9 -6 0 -14 68 -53 80 -46 5 3 10 1 10 -5 0 -7 7 -9 16 -6
10 4 13 2 8 -6 -5 -7 0 -9 14 -6 14 4 20 2 15 -5 -4 -6 2 -8 15 -5 12 4 22 2
22 -4 0 -6 11 -8 25 -6 14 3 28 1 31 -3 7 -12 141 -12 148 0 3 4 17 6 31 3 14
-2 25 0 25 6 0 6 10 8 22 4 13 -3 19 -1 15 5 -5 7 1 9 15 5 14 -3 19 -1 14 6
-5 8 -2 10 8 6 9 -3 16 -1 16 6 0 6 5 8 10 5 15 -9 79 31 125 79 22 23 31 31
20 17 -11 -15 -1 -8 23 14 41 38 54 56 29 39 -7 -5 1 3 18 18 16 15 27 28 23
28 -4 0 4 12 18 27 14 15 22 33 20 40 -3 7 -1 13 5 13 6 0 7 5 4 10 -3 6 -1
10 5 10 7 0 10 7 6 15 -3 8 -1 15 5 15 6 0 9 7 5 15 -3 8 -1 15 5 15 6 0 9 7
5 15 -3 8 0 15 5 15 7 0 9 11 7 25 -3 14 -1 25 3 25 5 0 9 36 9 80 0 44 -4 80
-9 80 -4 0 -6 11 -3 25 2 14 0 25 -7 25 -5 0 -8 7 -5 15 4 8 1 15 -5 15 -6 0
-8 7 -5 15 4 8 1 15 -5 15 -6 0 -8 7 -5 15 4 8 1 15 -5 15 -6 0 -8 7 -5 15 4
8 -1 17 -10 21 -9 3 -13 10 -11 15 3 4 -3 17 -15 29 -11 11 -17 20 -12 20 4 1
-6 12 -23 26 -16 15 -23 23 -15 19 8 -5 -3 11 -25 34 -40 42 -51 50 -39 29 3
-7 -5 1 -20 17 -14 17 -25 27 -26 23 0 -5 -9 1 -20 12 -12 12 -26 18 -32 14
-6 -4 -8 -3 -5 3 8 12 -20 26 -34 17 -5 -3 -9 -1 -9 5 0 12 -66 34 -80 26 -5
-3 -10 -1 -10 6 0 7 -10 9 -25 7 -14 -3 -25 -1 -25 3 0 5 -36 9 -80 9 -44 0
-80 -4 -80 -9z m254 -60 c150 -53 272 -174 328 -326 31 -86 31 -264 0 -349
-56 -152 -176 -272 -327 -328 -86 -31 -264 -31 -349 0 -340 126 -464 536 -249
820 76 99 170 162 294 197 75 21 225 14 303 -14z"/>
<path d="M525 1136 c-183 -43 -321 -165 -383 -339 -35 -97 -36 -231 -3 -327
40 -115 111 -207 213 -274 164 -108 392 -108 556 0 154 101 235 251 236 434 0
117 -29 208 -98 304 -113 159 -336 245 -521 202z m45 -36 c0 -5 -5 -10 -12
-10 -6 0 -3 -6 7 -14 23 -16 14 -46 -15 -46 -24 0 -27 20 -2 21 13 0 12 3 -5
11 -25 12 -30 33 -10 41 21 9 37 7 37 -3z m108 -28 c2 -18 -1 -32 -7 -32 -6 0
-11 6 -12 13 0 10 -2 10 -6 0 -7 -18 -33 -16 -33 3 0 56 53 71 58 16z m78 16
c6 -10 -41 -58 -57 -58 -12 0 -12 22 0 54 8 18 15 23 31 19 11 -3 23 -10 26
-15z m-241 -29 c8 -36 1 -47 -20 -29 -13 11 -15 10 -10 -1 7 -20 -39 -40 -56
-25 -9 8 -10 7 -6 -6 4 -10 2 -18 -4 -18 -5 0 -20 -9 -32 -21 l-22 -20 -23 27
c-22 25 -22 27 -6 45 9 10 21 16 26 13 6 -4 5 -10 -3 -15 -12 -7 -12 -9 0 -9
7 0 11 -6 7 -15 -3 -8 -2 -15 2 -15 18 1 28 18 28 49 -1 41 16 49 43 22 l20
-20 -5 28 c-5 23 -2 30 12 34 37 9 42 7 49 -24z m301 6 c9 -22 -5 -67 -19 -62
-7 2 -11 10 -9 17 2 11 0 11 -12 1 -22 -19 -31 5 -12 34 18 28 44 33 52 10z
m72 -28 c10 -8 10 -13 -2 -26 -8 -9 -16 -25 -19 -36 -5 -19 -5 -19 -12 3 -4
13 -11 19 -14 13 -4 -5 -12 -7 -18 -3 -9 6 -7 16 7 40 20 32 27 33 58 9z m62
-54 c0 -9 -3 -13 -7 -10 -3 4 -17 -2 -29 -14 -28 -26 -44 -7 -18 22 9 10 14
19 10 19 -4 0 -4 5 -1 10 9 15 45 -7 45 -27z m-157 -7 c74 -35 147 -109 184
-183 25 -53 28 -68 28 -163 0 -95 -3 -110 -28 -163 -37 -74 -110 -147 -184
-184 -53 -25 -68 -28 -163 -28 -95 0 -110 3 -163 28 -74 37 -148 111 -183 184
-36 76 -45 197 -20 275 36 113 127 208 238 249 80 29 213 22 291 -15z m-464
-15 c26 -20 24 -47 -4 -57 -17 -7 -55 22 -55 41 0 11 20 35 30 35 3 0 16 -9
29 -19z m666 -17 c17 -26 16 -27 -7 -51 -22 -21 -26 -22 -38 -9 -9 12 -9 16
-1 16 7 0 9 5 6 10 -4 6 -11 8 -16 5 -5 -4 -14 -3 -21 1 -7 5 -2 15 18 31 36
29 38 29 59 -3z m-758 -53 c-3 -14 -1 -18 9 -14 9 3 14 -2 14 -13 0 -14 3 -15
12 -6 21 21 29 13 12 -13 -9 -14 -20 -23 -24 -20 -5 3 -6 -3 -4 -12 3 -10 -1
-27 -9 -37 -14 -19 -16 -19 -41 -2 -34 22 -30 50 7 54 27 3 28 5 12 22 -14 15
-14 21 -3 39 16 26 22 27 15 2z m812 -30 c0 -10 -2 -11 -6 -3 -2 6 -9 12 -14
12 -6 0 -7 -5 -3 -11 4 -8 0 -9 -15 -4 -12 4 -21 2 -21 -4 0 -6 5 -11 11 -11
5 0 7 -5 3 -12 -5 -8 -2 -9 12 -4 49 21 57 20 52 -2 -4 -12 -2 -20 3 -16 5 3
9 -1 9 -9 0 -13 -39 -37 -62 -37 -6 0 -8 9 -5 21 3 12 3 18 0 15 -5 -5 -43 56
-43 69 0 2 12 11 28 19 30 16 53 6 51 -23z m-864 -101 c-3 -5 8 -13 24 -17 21
-6 28 -12 22 -21 -6 -10 -14 -10 -35 -2 -17 6 -25 6 -21 0 3 -6 1 -10 -4 -10
-12 0 -15 43 -4 53 10 11 25 8 18 -3z m913 -23 c2 -15 -2 -27 -8 -27 -6 0 -8
5 -5 10 8 13 -11 13 -35 0 -13 -7 -19 -6 -23 4 -7 19 1 26 30 26 15 0 22 4 17
11 -4 7 -1 10 7 7 8 -2 15 -17 17 -31z m-878 -127 c4 0 3 -11 -3 -24 -12 -25
-70 -37 -61 -11 3 7 0 16 -6 20 -6 4 -2 13 12 24 19 16 24 16 36 5 7 -8 17
-14 22 -14z m886 -26 c-13 -28 -49 -28 -62 0 -7 16 -5 25 11 37 18 15 21 15
40 1 17 -13 19 -20 11 -38z m-864 -146 c-6 -24 -49 -24 -54 -1 -2 10 4 25 12
33 13 13 17 13 31 0 8 -8 13 -23 11 -32z m821 28 c12 -9 14 -16 7 -21 -5 -3
-8 -11 -5 -16 4 -5 -5 -9 -19 -9 -27 0 -39 26 -21 47 13 15 16 15 38 -1z
m-748 -96 c3 -5 -5 -15 -19 -22 -19 -8 -23 -14 -15 -24 6 -8 7 -14 0 -18 -6
-4 -15 3 -22 16 -10 18 -8 24 11 40 25 20 36 22 45 8z m670 0 c-3 -6 1 -7 9
-4 10 4 18 -1 22 -11 9 -22 -16 -38 -35 -22 -11 10 -13 8 -7 -11 10 -30 -16
-56 -46 -46 -20 6 -21 5 -10 -8 10 -12 9 -18 -2 -28 -18 -14 -39 -4 -32 17 3
8 1 11 -4 8 -6 -3 -10 -2 -10 3 0 12 60 58 72 55 4 -2 7 0 6 5 -4 12 22 52 33
52 6 0 7 -4 4 -10z m-632 -61 c10 -11 16 -28 12 -36 -5 -13 -3 -14 11 -3 10 9
18 10 22 4 4 -6 15 -13 25 -17 24 -9 21 -27 -5 -28 -21 0 -21 -1 -4 -8 12 -5
16 -10 9 -14 -19 -12 -45 4 -40 24 4 16 1 18 -20 13 -24 -6 -25 -5 -21 20 4
20 2 24 -5 17 -27 -27 -61 5 -37 34 17 21 32 19 53 -6z m504 -69 c-2 -48 -20
-53 -42 -10 -14 27 -14 30 3 39 32 19 41 13 39 -29z m-277 -25 c0 -9 -6 -12
-15 -9 -10 4 -15 0 -15 -15 0 -16 5 -20 23 -17 14 2 21 9 19 21 -2 11 2 16 15
13 11 -2 19 -14 21 -30 3 -26 1 -27 -40 -26 -24 1 -49 6 -55 11 -16 12 -17 39
-1 55 17 17 48 15 48 -3z m150 -13 c0 -5 -6 -14 -12 -21 -11 -11 -10 -12 1 -6
9 5 12 3 9 -6 -7 -22 -36 -22 -43 0 -9 29 -25 26 -25 -5 0 -14 -4 -23 -10 -19
-5 3 -10 18 -10 33 0 25 3 27 45 29 25 1 45 -1 45 -5z"/>
<path d="M518 981 c-188 -60 -297 -264 -242 -452 72 -242 353 -343 562 -202
66 45 119 117 143 194 88 283 -181 550 -463 460z m164 -38 c25 -26 48 -72 48
-94 0 -5 -10 -4 -22 3 -13 6 -57 12 -98 12 -85 1 -132 -18 -188 -76 -60 -63
-54 -183 14 -258 20 -22 33 -43 30 -48 -9 -15 -64 -35 -80 -29 -27 11 -49 104
-43 184 3 40 4 73 1 73 -2 0 -13 -17 -24 -37 l-21 -38 6 40 c21 133 123 241
265 281 68 18 84 17 112 -13z m143 -43 c43 -29 75 -65 75 -83 0 -5 -6 -7 -12
-4 -22 8 -81 -22 -119 -59 l-36 -35 -34 19 c-19 11 -45 23 -59 27 -31 9 -60
34 -60 52 0 16 36 17 96 2 39 -10 47 -9 65 7 17 16 20 27 15 61 -7 53 7 56 69
13z m-281 -101 c-3 -6 6 -23 21 -39 15 -16 24 -33 21 -39 -5 -8 0 -8 16 -3 61
23 138 -38 138 -110 0 -32 -7 -47 -33 -73 -85 -85 -220 -63 -274 45 -13 24
-23 59 -23 77 0 35 40 126 61 139 8 4 9 3 5 -4 -10 -17 15 -14 38 3 23 18 40
20 30 4z m349 -37 c53 -58 74 -190 42 -266 -19 -44 -75 -108 -120 -136 -30
-19 -39 -20 -77 -10 -47 13 -133 55 -142 68 -3 5 25 12 63 14 156 11 241 107
212 238 -14 61 -25 68 -55 35 -31 -33 -36 -76 -8 -69 9 3 26 -2 37 -10 19 -13
18 -14 -8 -9 -24 5 -29 1 -46 -40 -11 -25 -29 -50 -40 -56 -31 -17 -34 -13
-12 15 15 20 21 41 21 81 0 66 19 105 67 138 45 30 45 30 66 7z m-364 -313
c17 -6 31 -16 31 -23 0 -19 48 -65 90 -86 48 -24 50 -36 10 -45 -59 -13 -189
30 -243 80 l-27 26 52 29 c29 15 53 29 54 29 1 1 15 -4 33 -10z"/>
</g>
</svg>
